<mxfile host="app.diagrams.net" agent="Mozilla/5.0 (Windows NT 10.0; Win64; x64) AppleWebKit/537.36 (KHTML, like Gecko) Chrome/131.0.0.0 Safari/537.36" version="25.0.1">
  <diagram name="Trang-1" id="FrcXohF5RhIh2e_kKu5U">
    <mxGraphModel dx="1050" dy="522" grid="1" gridSize="10" guides="1" tooltips="1" connect="1" arrows="1" fold="1" page="1" pageScale="1" pageWidth="827" pageHeight="1169" math="0" shadow="0">
      <root>
        <mxCell id="0" />
        <mxCell id="1" parent="0" />
        <mxCell id="NbmOB4hpNrLSeFzhu8Se-3" style="edgeStyle=orthogonalEdgeStyle;rounded=0;orthogonalLoop=1;jettySize=auto;html=1;entryX=0.5;entryY=0;entryDx=0;entryDy=0;" edge="1" parent="1" source="NbmOB4hpNrLSeFzhu8Se-1" target="NbmOB4hpNrLSeFzhu8Se-2">
          <mxGeometry relative="1" as="geometry" />
        </mxCell>
        <mxCell id="NbmOB4hpNrLSeFzhu8Se-1" value="Start" style="ellipse;whiteSpace=wrap;html=1;" vertex="1" parent="1">
          <mxGeometry x="354" y="130" width="120" height="80" as="geometry" />
        </mxCell>
        <mxCell id="NbmOB4hpNrLSeFzhu8Se-7" style="edgeStyle=orthogonalEdgeStyle;rounded=0;orthogonalLoop=1;jettySize=auto;html=1;entryX=0.5;entryY=0;entryDx=0;entryDy=0;" edge="1" parent="1" source="NbmOB4hpNrLSeFzhu8Se-2" target="NbmOB4hpNrLSeFzhu8Se-6">
          <mxGeometry relative="1" as="geometry" />
        </mxCell>
        <mxCell id="NbmOB4hpNrLSeFzhu8Se-2" value="int a&lt;div&gt;int b = 0&lt;/div&gt;" style="shape=parallelogram;perimeter=parallelogramPerimeter;whiteSpace=wrap;html=1;fixedSize=1;" vertex="1" parent="1">
          <mxGeometry x="354" y="260" width="120" height="60" as="geometry" />
        </mxCell>
        <mxCell id="NbmOB4hpNrLSeFzhu8Se-8" style="edgeStyle=orthogonalEdgeStyle;rounded=0;orthogonalLoop=1;jettySize=auto;html=1;" edge="1" parent="1" source="NbmOB4hpNrLSeFzhu8Se-6">
          <mxGeometry relative="1" as="geometry">
            <mxPoint x="414" y="510" as="targetPoint" />
          </mxGeometry>
        </mxCell>
        <mxCell id="NbmOB4hpNrLSeFzhu8Se-9" value="True" style="edgeLabel;html=1;align=center;verticalAlign=middle;resizable=0;points=[];" vertex="1" connectable="0" parent="NbmOB4hpNrLSeFzhu8Se-8">
          <mxGeometry x="-0.0412" y="1" relative="1" as="geometry">
            <mxPoint as="offset" />
          </mxGeometry>
        </mxCell>
        <mxCell id="NbmOB4hpNrLSeFzhu8Se-11" style="edgeStyle=orthogonalEdgeStyle;rounded=0;orthogonalLoop=1;jettySize=auto;html=1;" edge="1" parent="1" source="NbmOB4hpNrLSeFzhu8Se-6" target="NbmOB4hpNrLSeFzhu8Se-10">
          <mxGeometry relative="1" as="geometry" />
        </mxCell>
        <mxCell id="NbmOB4hpNrLSeFzhu8Se-6" value="a&amp;gt;0" style="rhombus;whiteSpace=wrap;html=1;" vertex="1" parent="1">
          <mxGeometry x="374" y="360" width="80" height="80" as="geometry" />
        </mxCell>
        <mxCell id="NbmOB4hpNrLSeFzhu8Se-13" style="edgeStyle=orthogonalEdgeStyle;rounded=0;orthogonalLoop=1;jettySize=auto;html=1;" edge="1" parent="1" source="NbmOB4hpNrLSeFzhu8Se-10" target="NbmOB4hpNrLSeFzhu8Se-12">
          <mxGeometry relative="1" as="geometry" />
        </mxCell>
        <mxCell id="NbmOB4hpNrLSeFzhu8Se-10" value="Vui lòng nhập số dương" style="shape=parallelogram;perimeter=parallelogramPerimeter;whiteSpace=wrap;html=1;fixedSize=1;" vertex="1" parent="1">
          <mxGeometry x="510" y="370" width="120" height="60" as="geometry" />
        </mxCell>
        <mxCell id="NbmOB4hpNrLSeFzhu8Se-12" value="End" style="ellipse;whiteSpace=wrap;html=1;" vertex="1" parent="1">
          <mxGeometry x="670" y="470" width="120" height="80" as="geometry" />
        </mxCell>
        <mxCell id="NbmOB4hpNrLSeFzhu8Se-16" style="edgeStyle=orthogonalEdgeStyle;rounded=0;orthogonalLoop=1;jettySize=auto;html=1;" edge="1" parent="1" source="NbmOB4hpNrLSeFzhu8Se-14" target="NbmOB4hpNrLSeFzhu8Se-15">
          <mxGeometry relative="1" as="geometry" />
        </mxCell>
        <mxCell id="NbmOB4hpNrLSeFzhu8Se-14" value="for(int i=1: i&amp;lt;a: i++){&lt;br&gt;b+=b*i&lt;br&gt;}" style="rounded=0;whiteSpace=wrap;html=1;" vertex="1" parent="1">
          <mxGeometry x="354" y="510" width="120" height="60" as="geometry" />
        </mxCell>
        <mxCell id="NbmOB4hpNrLSeFzhu8Se-17" style="edgeStyle=orthogonalEdgeStyle;rounded=0;orthogonalLoop=1;jettySize=auto;html=1;entryX=0.5;entryY=1;entryDx=0;entryDy=0;" edge="1" parent="1" source="NbmOB4hpNrLSeFzhu8Se-15" target="NbmOB4hpNrLSeFzhu8Se-12">
          <mxGeometry relative="1" as="geometry" />
        </mxCell>
        <mxCell id="NbmOB4hpNrLSeFzhu8Se-15" value="b" style="shape=parallelogram;perimeter=parallelogramPerimeter;whiteSpace=wrap;html=1;fixedSize=1;" vertex="1" parent="1">
          <mxGeometry x="354" y="610" width="120" height="60" as="geometry" />
        </mxCell>
      </root>
    </mxGraphModel>
  </diagram>
</mxfile>
